<?xml version="1.0" encoding="UTF-8" standalone="no"?>
<!DOCTYPE svg PUBLIC "-//W3C//DTD SVG 1.1//EN" "http://www.w3.org/Graphics/SVG/1.1/DTD/svg11.dtd">
<svg xmlns="http://www.w3.org/2000/svg" version="1.1" viewBox="0.00 0.00 792.00 202.00">
<path fill="#414141" d="
  M 665.75 175.75
  L 732.25 175.75
  Q 732.75 175.75 732.75 176.25
  L 732.75 182.25
  Q 732.75 182.75 732.25 182.75
  L 657.75 182.75
  Q 657.25 182.75 657.25 182.25
  L 657.25 65.75
  A 0.50 0.50 0.0 0 1 657.75 65.25
  L 732.12 65.25
  Q 732.75 65.25 732.75 65.88
  L 732.75 71.72
  Q 732.75 72.50 731.97 72.50
  L 665.75 72.50
  Q 665.25 72.50 665.25 73.00
  L 665.25 119.26
  A 0.32 0.32 0.0 0 0 665.57 119.58
  L 769.02 119.46
  Q 769.50 119.46 769.50 118.98
  L 769.50 68.19
  A 1.05 1.01 24.3 0 0 769.22 67.49
  L 717.83 12.21
  A 0.92 0.92 0.0 0 0 716.48 12.21
  L 691.64 39.07
  Q 691.30 39.44 690.79 39.45
  L 681.35 39.62
  A 0.25 0.25 0.0 0 1 681.16 39.20
  L 716.58 1.07
  A 0.94 0.94 0.0 0 1 717.95 1.07
  L 751.10 36.65
  A 12.28 0.00 47.5 0 1 759.10 45.39
  Q 768.06 55.20 777.17 64.86
  Q 777.52 65.24 777.52 65.75
  L 777.33 182.08
  Q 777.33 182.75 776.67 182.75
  L 770.00 182.75
  Q 769.50 182.75 769.50 182.25
  L 769.50 127.25
  Q 769.50 126.75 769.00 126.75
  L 666.03 126.75
  Q 665.25 126.75 665.25 127.53
  L 665.25 175.25
  Q 665.25 175.75 665.75 175.75
  Z"
/>
<path fill="#414141" d="
  M 176.97 122.26
  C 169.42 128.21 160.12 128.59 151.29 125.41
  Q 150.82 125.24 150.49 124.86
  Q 150.17 124.50 149.73 124.29
  Q 143.79 121.48 140.90 115.61
  A 0.71 0.70 -34.3 0 1 141.06 114.77
  L 143.74 112.46
  Q 144.20 112.05 144.45 112.62
  C 148.75 122.77 162.07 124.02 171.08 120.61
  C 172.80 119.96 175.48 117.56 176.16 115.48
  C 179.29 106.02 172.32 103.78 164.45 102.52
  Q 159.07 101.66 153.68 100.83
  C 138.76 98.54 138.69 80.99 152.28 76.39
  C 161.53 73.26 172.74 74.92 179.53 82.69
  A 1.65 1.65 0.0 0 1 179.44 84.95
  L 177.59 86.76
  A 0.56 0.56 0.0 0 1 176.79 86.74
  Q 166.71 75.77 152.78 81.07
  C 149.00 82.51 146.12 88.08 147.75 91.56
  C 149.37 95.01 155.23 96.31 158.69 96.65
  C 160.46 96.83 161.77 97.63 163.47 97.77
  C 174.53 98.64 185.03 103.47 181.02 116.80
  Q 180.14 119.76 176.97 122.26
  Z"
/>
<path fill="#414141" d="
  M 598.28 86.55
  Q 593.44 81.14 587.51 79.92
  C 581.00 78.57 573.34 79.29 569.98 85.93
  C 565.36 95.05 577.72 95.81 582.00 96.97
  C 590.07 99.17 601.17 98.30 603.25 108.71
  Q 605.16 118.24 597.31 123.29
  C 595.62 124.38 594.59 125.35 592.83 125.92
  C 581.50 129.57 568.54 126.51 562.76 115.57
  A 0.67 0.65 -35.2 0 1 562.91 114.77
  L 565.38 112.56
  Q 565.84 112.15 566.14 112.69
  Q 570.75 120.93 579.93 122.21
  C 587.46 123.27 601.11 120.38 598.37 109.50
  C 596.02 100.16 577.23 103.08 569.92 98.98
  C 562.17 94.64 562.50 83.72 569.52 78.76
  C 579.27 71.85 593.32 74.50 601.28 82.51
  A 1.66 1.65 -43.7 0 1 601.22 84.90
  L 599.37 86.61
  Q 598.79 87.13 598.28 86.55
  Z"
/>
<path fill="#414141" d="
  M 106.36 111.16
  C 110.62 114.14 115.66 122.37 117.87 126.08
  Q 118.27 126.75 117.49 126.75
  L 112.95 126.75
  Q 112.32 126.75 112.01 126.21
  C 108.45 120.01 104.22 112.46 96.38 112.29
  Q 89.55 112.14 82.74 112.20
  A 0.50 0.49 88.9 0 0 82.25 112.72
  L 82.58 125.70
  Q 82.61 126.75 81.55 126.75
  L 77.75 126.75
  Q 77.25 126.75 77.25 126.25
  L 77.25 76.01
  Q 77.25 75.47 77.79 75.47
  C 88.28 75.56 104.06 73.23 112.49 81.41
  C 121.11 89.77 118.21 103.52 107.52 108.65
  Q 107.27 108.77 107.00 108.76
  Q 106.77 108.75 106.56 108.74
  Q 106.10 108.72 106.10 109.18
  L 106.10 110.67
  A 0.60 0.59 17.7 0 0 106.36 111.16
  Z
  M 82.40 80.26
  L 82.44 106.84
  A 0.40 0.40 0.0 0 0 82.84 107.24
  L 95.71 107.21
  A 16.79 13.14 -0.1 0 0 112.48 94.04
  L 112.48 92.94
  A 16.79 13.14 -0.1 0 0 95.67 79.83
  L 82.80 79.86
  A 0.40 0.40 0.0 0 0 82.40 80.26
  Z"
/>
<path fill="#414141" d="
  M 225.50 80.15
  L 225.50 126.35
  A 0.40 0.40 0.0 0 1 225.10 126.75
  L 220.91 126.75
  A 0.40 0.40 0.0 0 1 220.51 126.35
  L 220.48 80.15
  A 0.40 0.40 0.0 0 0 220.08 79.75
  L 203.65 79.75
  A 0.40 0.40 0.0 0 1 203.25 79.35
  L 203.25 75.84
  A 0.40 0.40 0.0 0 1 203.65 75.44
  L 242.10 75.52
  A 0.40 0.40 0.0 0 1 242.50 75.92
  L 242.50 79.35
  A 0.40 0.40 0.0 0 1 242.10 79.75
  L 225.90 79.75
  A 0.40 0.40 0.0 0 0 225.50 80.15
  Z"
/>
<path fill="#414141" d="
  M 273.75 121.75
  L 301.09 121.75
  A 0.66 0.65 89.6 0 1 301.74 122.40
  L 301.76 126.24
  A 0.50 0.50 0.0 0 1 301.26 126.74
  L 268.71 126.77
  A 0.62 0.62 0.0 0 1 268.09 126.15
  L 268.13 76.06
  Q 268.13 75.50 268.69 75.50
  L 300.97 75.50
  Q 301.75 75.50 301.75 76.28
  L 301.75 79.25
  Q 301.75 79.75 301.25 79.75
  L 273.78 79.75
  Q 273.25 79.75 273.25 80.28
  L 273.25 98.00
  Q 273.25 98.50 273.75 98.50
  L 299.78 98.50
  Q 300.69 98.50 300.43 99.37
  Q 300.00 100.84 300.43 102.30
  A 0.53 0.53 0.0 0 1 299.92 102.99
  L 273.99 103.02
  Q 273.25 103.02 273.25 103.76
  L 273.25 121.25
  Q 273.25 121.75 273.75 121.75
  Z"
/>
<path fill="#414141" d="
  M 532.43 75.34
  L 536.49 75.54
  A 0.47 0.47 0.0 0 1 536.94 76.01
  Q 537.09 86.44 536.99 96.80
  C 536.88 108.74 537.07 117.79 526.88 123.99
  C 512.33 132.86 493.07 123.55 493.04 105.94
  Q 493.02 91.03 492.93 76.12
  Q 492.93 75.58 493.47 75.56
  L 497.32 75.36
  Q 497.80 75.34 497.81 75.82
  Q 498.23 90.01 497.94 101.25
  C 497.74 108.52 498.85 115.93 505.51 119.99
  C 511.32 123.53 520.15 123.07 525.59 119.05
  Q 531.75 114.49 531.89 105.54
  Q 532.13 90.56 531.96 75.80
  Q 531.95 75.32 532.43 75.34
  Z"
/>
<path fill="#414141" d="
  M 22.66 121.75
  L 50.34 121.75
  A 0.41 0.41 0.0 0 1 50.75 122.16
  L 50.75 126.34
  A 0.41 0.41 0.0 0 1 50.34 126.75
  L 17.66 126.75
  A 0.41 0.41 0.0 0 1 17.25 126.34
  L 17.25 75.91
  A 0.41 0.41 0.0 0 1 17.66 75.50
  L 50.34 75.50
  A 0.41 0.41 0.0 0 1 50.75 75.91
  L 50.75 79.34
  A 0.41 0.41 0.0 0 1 50.34 79.75
  L 22.66 79.75
  A 0.41 0.41 0.0 0 0 22.25 80.16
  L 22.25 98.09
  A 0.41 0.41 0.0 0 0 22.66 98.50
  L 48.97 98.50
  A 0.41 0.41 0.0 0 1 49.38 98.91
  L 49.38 102.57
  A 0.41 0.41 0.0 0 1 48.97 102.98
  L 22.66 103.03
  A 0.41 0.41 0.0 0 0 22.25 103.44
  L 22.25 121.34
  A 0.41 0.41 0.0 0 0 22.66 121.75
  Z"
/>
<path fill="#414141" d="
  M 390.50 98.05
  L 390.50 75.95
  A 0.45 0.45 0.0 0 1 390.95 75.50
  L 395.30 75.50
  A 0.45 0.45 0.0 0 1 395.75 75.95
  L 395.75 126.30
  A 0.45 0.45 0.0 0 1 395.30 126.75
  L 390.95 126.75
  A 0.45 0.45 0.0 0 1 390.50 126.30
  L 390.50 103.45
  A 0.45 0.45 0.0 0 0 390.05 103.00
  L 361.15 103.00
  A 0.45 0.45 0.0 0 0 360.70 103.45
  L 360.78 126.30
  A 0.45 0.45 0.0 0 1 360.33 126.75
  L 355.95 126.75
  A 0.45 0.45 0.0 0 1 355.50 126.30
  L 355.50 75.95
  A 0.45 0.45 0.0 0 1 355.95 75.50
  L 360.30 75.50
  A 0.45 0.45 0.0 0 1 360.75 75.95
  L 360.75 98.05
  A 0.45 0.45 0.0 0 0 361.20 98.50
  L 390.05 98.50
  A 0.45 0.45 0.0 0 0 390.50 98.05
  Z"
/>
<path fill="#414141" d="
  M 442.67 76.49
  A 2.08 2.08 0.0 0 1 446.49 76.48
  L 467.90 125.72
  Q 468.35 126.75 467.22 126.75
  L 463.36 126.75
  Q 462.89 126.75 462.71 126.32
  L 445.51 86.44
  A 0.94 0.94 0.0 0 0 443.78 86.44
  L 434.95 106.81
  A 0.69 0.68 -78.9 0 0 435.59 107.77
  L 443.18 107.69
  Q 443.73 107.69 443.74 108.24
  L 443.76 111.87
  Q 443.76 112.50 443.13 112.50
  L 433.02 112.50
  Q 432.49 112.50 432.27 112.99
  L 426.54 126.20
  Q 426.34 126.65 425.84 126.68
  L 421.61 126.93
  A 0.59 0.59 0.0 0 1 421.04 126.10
  L 426.65 113.45
  A 0.68 0.68 0.0 0 0 426.03 112.50
  L 421.47 112.50
  A 0.54 0.53 -0.5 0 1 420.93 111.98
  L 420.84 108.21
  A 0.45 0.44 -1.2 0 1 421.29 107.75
  L 428.49 107.75
  Q 429.12 107.75 429.37 107.17
  L 442.67 76.49
  Z"
/>
<path fill="#414141" d="
  M 248.04 184.20
  C 249.83 186.91 254.98 187.00 258.10 185.78
  Q 258.50 185.62 258.50 185.19
  L 258.50 179.50
  Q 258.50 179.00 259.00 179.00
  L 260.25 179.00
  A 0.57 0.56 0.0 0 1 260.82 179.56
  L 260.83 185.95
  A 0.70 0.67 74.1 0 1 260.52 186.53
  Q 254.72 190.37 249.36 187.73
  C 236.63 181.46 247.53 163.56 260.61 171.98
  A 0.61 0.60 41.7 0 1 260.67 172.95
  L 259.93 173.55
  Q 259.52 173.88 259.08 173.59
  C 251.32 168.43 242.57 175.91 248.04 184.20
  Z"
/>
<path fill="#414141" d="
  M 373.95 179.75
  L 364.16 179.75
  A 0.65 0.65 0.0 0 0 363.51 180.40
  L 363.50 187.74
  Q 363.49 188.47 362.78 188.61
  L 361.87 188.79
  Q 361.26 188.90 361.26 188.28
  Q 361.24 179.76 361.25 171.25
  Q 361.25 170.23 361.73 169.90
  Q 362.31 169.49 363.18 170.13
  Q 363.50 170.36 363.50 170.75
  L 363.50 177.25
  A 0.50 0.50 0.0 0 0 364.00 177.75
  L 373.96 177.75
  A 0.70 0.70 0.0 0 0 374.66 177.04
  L 374.58 170.64
  Q 374.57 170.04 375.17 170.02
  L 376.43 169.99
  Q 376.90 169.98 376.92 170.45
  C 377.13 175.88 376.89 181.59 377.34 186.96
  Q 377.46 188.41 376.10 188.80
  A 1.21 1.20 82.1 0 1 374.56 187.63
  L 374.60 180.39
  A 0.65 0.64 -0.0 0 0 373.95 179.75
  Z"
/>
<path fill="#414141" d="
  M 291.66 181.84
  Q 292.40 183.08 293.15 181.84
  L 300.03 170.35
  A 1.20 1.20 0.0 0 1 302.26 170.96
  L 302.27 187.83
  Q 302.27 188.49 301.61 188.55
  L 300.47 188.65
  Q 299.73 188.71 299.75 187.97
  L 300.02 178.01
  A 1.10 1.10 0.0 0 0 297.96 177.44
  L 293.01 186.33
  A 0.61 0.61 0.0 0 1 291.96 186.37
  Q 289.05 181.93 286.58 176.99
  Q 286.13 176.09 285.32 176.29
  A 0.75 0.75 0.0 0 0 284.75 177.02
  L 284.75 188.31
  Q 284.75 188.90 284.18 188.77
  L 282.95 188.50
  Q 282.50 188.41 282.50 187.95
  L 282.50 170.96
  A 1.21 1.21 0.0 0 1 284.75 170.33
  L 291.66 181.84
  Z"
/>
<path fill="#414141" d="
  M 338.24 179.31
  C 342.09 182.34 340.61 187.77 335.73 188.36
  Q 330.55 188.97 325.08 188.40
  Q 324.50 188.34 324.50 187.75
  L 324.50 170.77
  Q 324.50 170.24 325.03 170.19
  C 329.61 169.75 340.23 168.85 339.42 175.13
  C 339.28 176.25 338.27 177.26 337.97 178.53
  A 0.78 0.76 -64.6 0 0 338.24 179.31
  Z
  M 326.76 172.51
  L 326.74 177.21
  A 0.72 0.72 0.0 0 0 327.46 177.94
  L 332.42 177.95
  A 4.34 2.04 0.2 0 0 336.77 175.93
  L 336.77 173.87
  A 4.34 2.04 0.2 0 0 332.44 171.81
  L 327.48 171.80
  A 0.72 0.72 0.0 0 0 326.76 172.51
  Z
  M 326.66 180.20
  L 326.66 186.24
  A 0.46 0.46 0.0 0 0 327.12 186.70
  L 334.49 186.70
  A 3.47 3.35 -0.0 0 0 337.96 183.35
  L 337.96 183.09
  A 3.47 3.35 0.0 0 0 334.49 179.74
  L 327.12 179.74
  A 0.46 0.46 0.0 0 0 326.66 180.20
  Z"
/>
</svg>
